# Mesh "Cone" exported with Unity Assets Bundle Extractor; 33 vertices, 90 indices, 320 bits per vertex
g Cone
# SubMesh 0
# Vertices
v 0.923880 -0.382684 0.000000
vn -0.000000 0.000000 -1.000000
v 1.000000 -0.000000 0.000000
vn -0.000000 0.000000 -1.000000
v 0.923880 0.382683 0.000000
vn -0.000000 0.000000 -1.000000
v 0.707107 -0.707107 0.000000
vn -0.000000 0.000000 -1.000000
v 0.707107 0.707107 0.000000
vn -0.000000 0.000000 -1.000000
v 0.382683 -0.923880 0.000000
vn -0.000000 0.000000 -1.000000
v 0.382683 0.923880 0.000000
vn -0.000000 0.000000 -1.000000
v 0.000000 -1.000000 0.000000
vn -0.000000 0.000000 -1.000000
v -0.000000 1.000000 0.000000
vn -0.000000 0.000000 -1.000000
v -0.382683 -0.923880 0.000000
vn -0.000000 0.000000 -1.000000
v -0.382683 0.923880 0.000000
vn -0.000000 0.000000 -1.000000
v -0.707107 0.707107 0.000000
vn -0.000000 0.000000 -1.000000
v -0.707107 -0.707107 0.000000
vn -0.000000 0.000000 -1.000000
v -0.923879 0.382684 0.000000
vn -0.000000 0.000000 -1.000000
v -0.923880 -0.382684 0.000000
vn -0.000000 0.000000 -1.000000
v -1.000000 0.000000 0.000000
vn -0.000000 0.000000 -1.000000
v -0.000000 1.000000 0.000000
vn -0.000000 0.894433 0.447201
v 0.382683 0.923880 0.000000
vn 0.342278 0.826350 0.447204
v -0.000000 0.000000 2.000000
vn -0.000000 0.000000 1.000000
v -0.382683 0.923880 0.000000
vn -0.342278 0.826350 0.447204
v 0.707107 0.707107 0.000000
vn 0.632459 0.632459 0.447204
v -0.707107 0.707107 0.000000
vn -0.632459 0.632459 0.447204
v 0.923880 0.382683 0.000000
vn 0.826350 0.342278 0.447204
v -0.923879 0.382684 0.000000
vn -0.826350 0.342278 0.447204
v 1.000000 -0.000000 0.000000
vn 0.894433 0.000000 0.447201
v -1.000000 0.000000 0.000000
vn -0.894433 0.000000 0.447201
v 0.923880 -0.382684 0.000000
vn 0.826350 -0.342278 0.447204
v -0.923880 -0.382684 0.000000
vn -0.826350 -0.342278 0.447204
v 0.707107 -0.707107 0.000000
vn 0.632459 -0.632459 0.447204
v -0.707107 -0.707107 0.000000
vn -0.632459 -0.632459 0.447204
v 0.382683 -0.923880 0.000000
vn 0.342278 -0.826350 0.447204
v -0.382683 -0.923880 0.000000
vn -0.342278 -0.826350 0.447204
v 0.000000 -1.000000 0.000000
vn -0.000000 -0.894433 0.447201
# Faces (1 to 33)
g Cone_0
f -31//-31 -32//-32 -33//-33
f -33//-33 -30//-30 -31//-31
f -30//-30 -29//-29 -31//-31
f -30//-30 -28//-28 -29//-29
f -28//-28 -27//-27 -29//-29
f -28//-28 -26//-26 -27//-27
f -26//-26 -25//-25 -27//-27
f -26//-26 -24//-24 -25//-25
f -24//-24 -23//-23 -25//-25
f -24//-24 -22//-22 -23//-23
f -24//-24 -21//-21 -22//-22
f -21//-21 -20//-20 -22//-22
f -21//-21 -19//-19 -20//-20
f -19//-19 -18//-18 -20//-20
f -15//-15 -16//-16 -17//-17
f -15//-15 -17//-17 -14//-14
f -15//-15 -13//-13 -16//-16
f -15//-15 -14//-14 -12//-12
f -15//-15 -11//-11 -13//-13
f -15//-15 -12//-12 -10//-10
f -15//-15 -9//-9 -11//-11
f -15//-15 -10//-10 -8//-8
f -15//-15 -7//-7 -9//-9
f -15//-15 -8//-8 -6//-6
f -15//-15 -5//-5 -7//-7
f -15//-15 -6//-6 -4//-4
f -15//-15 -3//-3 -5//-5
f -15//-15 -4//-4 -2//-2
f -15//-15 -1//-1 -3//-3
f -15//-15 -2//-2 -1//-1

